# xmcd
#
# Track frame offsets:
#	183
#	21033
#	50940
#	75668
#	101298
#	129098
#	152295
#	173448
#	197030
#	229275
#	256060
#	277943
#
# Disc length: 4020 seconds
#
# Revision: 0
# Processed by: cddbd v1.5.2PL0 Copyright (c) Steve Scherf et al.
# Submitted via: EasyCDDAExtractor 16.0.8.1
#
DISCID=870fb20c
DTITLE=Maxi Dance Volume 4
DYEAR=1993
DGENRE=Dance
TTITLE0=Ace Of Base - Wheel Of Fortune (Clubmix)
TTITLE1=Louchie Lou and Michie One - Rich Girl (F and F Club Mix)
TTITLE2=Hugh K. - Shine On (Extended Version)
TTITLE3=Pavesi Sound - All Come Together (Brain Version)
TTITLE4=Captain Hollywood Project - Impossible (Extended Version)
TTITLE5=Yellow Monkeys - Japan Is ...
TTITLE6=General Base - Apache (Extended Version)
TTITLE7=Booby Trax - Don't Go (Pure Power Mix)
TTITLE8=Casimir - L'Ile Aux Enfants (Casimix)
TTITLE9=Boyzz In Attic - Golden Rain (Dance Mix)
TTITLE10=Postfix - Rototom (Club Version)
TTITLE11=Cafe Latino - Esta Es La Musica (Extended Remix)
EXTD=
EXTT0=
EXTT1=
EXTT2=
EXTT3=
EXTT4=
EXTT5=
EXTT6=
EXTT7=
EXTT8=
EXTT9=
EXTT10=
EXTT11=
PLAYORDER=
